<?xml version="1.0" encoding="utf-8"?>
<!-- Generator: Adobe Illustrator 25.2.0, SVG Export Plug-In . SVG Version: 6.00 Build 0)  -->
<svg version="1.1" id="Layer_1" xmlns="http://www.w3.org/2000/svg" xmlns:xlink="http://www.w3.org/1999/xlink" x="0px" y="0px"
	 viewBox="0 0 1024 1024" style="enable-background:new 0 0 1024 1024;" xml:space="preserve">
<style type="text/css">
	.st0{fill:#FFFFFF;}
	.st1{fill:#FFFFFF;stroke:#000000;stroke-width:17;stroke-miterlimit:10;}
	.st2{fill:none;stroke:#000000;stroke-width:17;stroke-linecap:round;stroke-miterlimit:10;}
	.st3{fill:none;stroke:#000000;stroke-width:17;stroke-linecap:round;stroke-linejoin:round;stroke-miterlimit:10;}
</style>
<g>
	<path class="st0" d="M241.87,931.5c-31.08,0-56.37-25.29-56.37-56.37V148.87c0-31.08,25.29-56.37,56.37-56.37h540.26
		c31.08,0,56.37,25.29,56.37,56.37v726.26c0,31.08-25.29,56.37-56.37,56.37H241.87z"/>
	<path d="M782.13,101c26.4,0,47.87,21.47,47.87,47.87v726.26c0,26.4-21.47,47.87-47.87,47.87H241.87
		c-26.4,0-47.87-21.47-47.87-47.87V148.87c0-26.4,21.47-47.87,47.87-47.87H782.13 M782.13,84H241.87
		C206.04,84,177,113.04,177,148.87v726.26c0,35.83,29.04,64.87,64.87,64.87h540.26c35.83,0,64.87-29.04,64.87-64.87V148.87
		C847,113.04,817.96,84,782.13,84L782.13,84z"/>
</g>
<line class="st1" x1="177" y1="186.52" x2="847" y2="186.52"/>
<line class="st2" x1="446.5" y1="140.5" x2="575.83" y2="140.5"/>
<line class="st2" x1="422.71" y1="280.83" x2="715" y2="280.83"/>
<line class="st2" x1="422.22" y1="325.83" x2="605" y2="325.83"/>
<line class="st2" x1="427.98" y1="525.83" x2="610.76" y2="525.83"/>
<line class="st2" x1="429.22" y1="570.83" x2="721.52" y2="570.83"/>
<line class="st2" x1="429.22" y1="731.83" x2="721.52" y2="731.83"/>
<path class="st2" d="M354.16,585.5h-67.32c-12.34,0-22.34-10-22.34-22.34v-75.32c0-12.34,10-22.34,22.34-22.34h67.32
	c12.34,0,22.34,10,22.34,22.34v75.32C376.5,575.5,366.5,585.5,354.16,585.5z"/>
<path class="st2" d="M372.59,756.5h-86.17c-7.13,0-12.91-5.78-12.91-12.91v-47.75c0-14.55,11.79-26.34,26.34-26.34h59.32
	c14.55,0,26.34,11.79,26.34,26.34v47.75C385.5,750.72,379.72,756.5,372.59,756.5z"/>
<line class="st2" x1="320.5" y1="231.59" x2="320.5" y2="385"/>
<path class="st2" d="M273.5,231.59c0,0-9,79.91,47,83.7"/>
<path class="st2" d="M367.6,231.98c0,0,9,79.91-47,83.7"/>
<polyline class="st3" points="715,332.91 777.5,415.5 715,489.17 "/>
</svg>
