<?xml version="1.0" encoding="utf-8"?>
<!-- Generator: Adobe Illustrator 25.2.0, SVG Export Plug-In . SVG Version: 6.00 Build 0)  -->
<svg version="1.1" id="Layer_1" xmlns="http://www.w3.org/2000/svg" xmlns:xlink="http://www.w3.org/1999/xlink" x="0px" y="0px"
	 viewBox="0 0 1024 1024" style="enable-background:new 0 0 1024 1024;" xml:space="preserve">
<style type="text/css">
	.st0{fill:#FFFFFF;stroke:#000000;stroke-width:17;stroke-linecap:round;stroke-linejoin:round;stroke-miterlimit:10;}
	.st1{fill:#FFFFFF;stroke:#000000;stroke-width:17;stroke-miterlimit:10;}
	.st2{fill:none;stroke:#000000;stroke-width:17;stroke-linecap:round;stroke-linejoin:round;stroke-miterlimit:10;}
</style>
<path class="st0" d="M492.98,709.68l-382.82-1.38c-22.43,0-40.61,18.66-40.61,41.67v0c0,23.02,18.18,41.67,40.61,41.67h461.35"/>
<path class="st1" d="M402.38,402.46c7.12,0,14.19,0.29,21.18,0.86c5.16-5.35,8.35-12.71,8.35-20.83c0-16.36-12.92-29.62-28.86-29.62
	c-15.94,0-28.86,13.26-28.86,29.62c0,8.08,3.16,15.4,8.28,20.75C389.04,402.73,395.68,402.46,402.38,402.46z"/>
<path class="st0" d="M609.43,500.77c-51.44-59.65-124.65-96.94-205.88-96.94c-155.68,0-281.89,136.93-281.89,305.84h370.48"/>
<path class="st0" d="M638.5,390.48v277.12l-76.23-52.7c-13.96-9.65-32.71-7.32-44.02,5.49l0,0c-11.14,12.62-11.74,31.65-1.41,44.98
	c17.54,22.62,46.18,59.02,77.49,96.66c30.87,37.11,79.2,81.28,155.71,79.91c4.03,5.51,126.18-6.89,154.37-119.86
	c1-1.02,0.51-103.87,0.2-156.64c-0.1-16.78-13.55-30.23-29.9-29.91h0c-15.68,0.31-28.34,13.22-28.76,29.3l-1.34,51.58l1.6-101.28
	c0.26-16.6-12.61-30.28-28.78-30.59l-12-0.23c-16.42-0.32-29.89,13.25-29.89,30.1v90.55l-3.25-159.78
	c-0.33-16.38-13.37-29.48-29.33-29.48h-6.24c-16.2,0-29.34,13.48-29.34,30.11v123.33V274.18c0-16.62-13.11-30.09-29.3-30.11
	l-10.11-0.01c-16.2-0.02-29.35,13.45-29.37,30.08L638.5,390.48z"/>
<path class="st2" d="M581.67,436.15c-43.38-32.68-71.91-88.02-71.91-150.8c0-100.43,73.02-181.85,163.09-181.85
	s163.09,81.42,163.09,181.85c0,43.17-13.49,82.82-36.02,114.01"/>
</svg>
