<?xml version="1.0" encoding="utf-8"?>
<!-- Generator: Adobe Illustrator 25.2.0, SVG Export Plug-In . SVG Version: 6.00 Build 0)  -->
<svg version="1.1" id="Layer_1" xmlns="http://www.w3.org/2000/svg" xmlns:xlink="http://www.w3.org/1999/xlink" x="0px" y="0px"
	 viewBox="0 0 1024 1024" style="enable-background:new 0 0 1024 1024;" xml:space="preserve">
<style type="text/css">
	.st0{fill:#FFFFFF;stroke:#000000;stroke-width:17;stroke-linecap:round;stroke-linejoin:round;stroke-miterlimit:10;}
	.st1{fill:none;stroke:#000000;stroke-width:17;stroke-linecap:round;stroke-linejoin:round;stroke-miterlimit:10;}
</style>
<polygon class="st0" points="374.5,283.5 86.01,283.04 165.67,698 469.56,698 "/>
<polyline class="st1" points="86.01,283.04 44.98,698 165.67,698 "/>
<path class="st0" d="M574.61,517.04l47.69-120.12h199.16c13,0,25.03,7.38,31.69,19.43l62.49,113.17L966.71,545
	c18.5,5.61,31.29,23.82,31.29,44.56v40.39c0,11.81-8.87,21.39-19.82,21.39H617.65c-12.42,0-24.17-6.08-31.96-16.52l-16.86-22.62"/>
<line class="st0" x1="592.65" y1="575.54" x2="512.38" y2="575.54"/>
<line class="st0" x1="622.98" y1="524.13" x2="568.83" y2="524.13"/>
<path class="st0" d="M755.24,431.24v39.2c0,16.95,12.73,30.68,28.42,30.68h69.45"/>
<ellipse class="st0" cx="928.64" cy="657.44" rx="37.57" ry="40.56"/>
<ellipse class="st0" cx="654.09" cy="657.44" rx="37.57" ry="40.56"/>
<path class="st1" d="M705.04,396.92l-0.21-35.45c-0.09-15.71,11.68-28.51,26.23-28.51h35.16c14.49,0,26.23,12.68,26.23,28.32v35.64"
	/>
<path class="st1" d="M185.91,283.04V200.2c0-27.39,20.57-49.59,45.94-49.59h0c25.37,0,45.94,22.2,45.94,49.59v82.84"/>
<path class="st0" d="M230.66,372.97l10.44,67.55c2.45,15.87-9.23,30.43-25.25,31.48h0c-14,0.91-26.43-8.92-28.76-22.76l-12.21-72.62
	"/>
<line class="st0" x1="236.83" y1="564.82" x2="219.85" y2="471.73"/>
<path class="st0" d="M293,390.61l-1.91,32.08c-0.54,9.1,3.97,17.76,11.73,22.53l7.72,4.74c12.08,7.43,27.92,3.19,34.68-9.28
	l6.31-11.63c3.78-6.98,3.99-15.35,0.55-22.5l-12.11-25.2c-5-10.41-16.54-15.97-27.8-13.39l0,0
	C301.46,370.43,293.65,379.64,293,390.61z"/>
<line class="st0" x1="347.27" y1="552.6" x2="327.92" y2="453.39"/>
</svg>
